<svg xmlns="http://www.w3.org/2000/svg" width="11.429" height="16" viewBox="0 0 11.429 16">
  <g id="all-files-icon" transform="translate(-527.999 -1302)">
    <path id="Path_30016" data-name="Path 30016" d="M3021.257,3377.171l-4-4a.519.519,0,0,0-.4-.171h-5.714a1.146,1.146,0,0,0-1.143,1.143v13.714a1.146,1.146,0,0,0,1.143,1.143h9.143a1.146,1.146,0,0,0,1.143-1.143v-10.286A.519.519,0,0,0,3021.257,3377.171Zm-4.4-2.8,3.2,3.2h-3.2Zm3.428,13.486h-9.143v-13.714h4.571v3.428a1.146,1.146,0,0,0,1.143,1.143h3.428Z" transform="translate(-2482 -2071)" fill="#091e42"/>
    <rect id="Rectangle_1484" data-name="Rectangle 1484" width="6" height="1" transform="translate(530.714 1311)" fill="#091e42"/>
    <rect id="Rectangle_1485" data-name="Rectangle 1485" width="6" height="1" transform="translate(530.714 1313)" fill="#091e42"/>
  </g>
</svg>
