<svg xmlns="http://www.w3.org/2000/svg" width="11.429" height="16" viewBox="0 0 11.429 16">
  <g id="complete-state-icon" transform="translate(-413 -1251)">
    <path id="Path_30003" data-name="Path 30003" d="M3246.257,3377.171l-4-4a.519.519,0,0,0-.4-.171h-5.714a1.146,1.146,0,0,0-1.143,1.143v13.714a1.146,1.146,0,0,0,1.143,1.143h9.143a1.146,1.146,0,0,0,1.143-1.143v-10.286A.519.519,0,0,0,3246.257,3377.171Zm-4.4-2.8,3.2,3.2h-3.2Zm3.428,13.486h-9.143v-13.714h4.571v3.428a1.146,1.146,0,0,0,1.143,1.143h3.428Z" transform="translate(-2822 -2122)" fill="#091e42"/>
    <path id="Path_30004" data-name="Path 30004" d="M3241.286,3390.355l-1.48-1.48-.806.806,2.286,2.286,4.571-4.572-.806-.806Z" transform="translate(-2823.715 -2127.824)" fill="#091e42"/>
  </g>
</svg>
