<svg xmlns="http://www.w3.org/2000/svg" width="16" height="13.714" viewBox="0 0 16 13.714">
  <g id="folder-icon" transform="translate(-818 -565)">
    <path id="Path_30034" data-name="Path 30034" d="M1148.429,95h-1.143v2.286H1145v1.143h2.286v2.286h1.143V98.429h2.286V97.286h-2.286Z" transform="translate(-316.714 478)" fill="#505f79"/>
    <path id="Path_30035" data-name="Path 30035" d="M1141.857,81.286H1135l-1.943-1.943a1.128,1.128,0,0,0-.8-.343h-4.114A1.146,1.146,0,0,0,1127,80.143V91.571a1.146,1.146,0,0,0,1.143,1.143h8V91.571h-8V80.143h4.114l1.943,1.943.343.343h7.314V87H1143V82.429A1.146,1.146,0,0,0,1141.857,81.286Z" transform="translate(-309 486)" fill="#505f79"/>
  </g>
</svg>
