<?xml version="1.0" encoding="utf-8"?>
<!-- Generator: Adobe Illustrator 24.0.0, SVG Export Plug-In . SVG Version: 6.00 Build 0)  -->
<svg version="1.1" id="Layer_1" xmlns="http://www.w3.org/2000/svg" xmlns:xlink="http://www.w3.org/1999/xlink" x="0px" y="0px"
	 viewBox="0 0 331.3 73.7" style="enable-background:new 0 0 331.3 73.7;" xml:space="preserve">
<style type="text/css">
	.st0{fill:#FFFFFF;}
</style>
<g id="Group_14756" transform="translate(-91 -473.209)">
	<g id="Group_14743" transform="translate(-44 -30.791)">
		<path id="Path_27288" class="st0" d="M396.1,557.2l0.1-38.1h-6.9v11.8c-2.4-2.3-5.6-3.6-9-3.5c-1.9,0-3.9,0.4-5.6,1.2
			c-3.5,1.5-6.3,4.4-7.7,7.9c-1.5,3.7-1.5,7.9,0,11.7c1.4,3.5,4.1,6.3,7.6,7.8c1.8,0.8,3.7,1.2,5.6,1.1c1.8,0,3.6-0.3,5.2-1
			c1.7-0.8,3.2-1.9,4.4-3.3l-0.1,4.2H396.1z M381.2,533.5c1.1,0,2.3,0.2,3.3,0.7c1,0.4,1.9,1.1,2.7,1.8c0.8,0.8,1.4,1.7,1.8,2.7
			c0.4,1.1,0.7,2.2,0.7,3.4c0,1.2-0.2,2.4-0.7,3.6c-0.4,1.1-1,2-1.8,2.9c-0.8,0.8-1.7,1.5-2.8,1.9c-1.1,0.5-2.3,0.7-3.4,0.7
			c-1.1,0-2.3-0.2-3.3-0.6c-1-0.4-1.9-1-2.6-1.8c-0.8-0.8-1.3-1.8-1.7-2.8c-0.4-1.1-0.6-2.4-0.6-3.6c0-1.2,0.2-2.3,0.6-3.4
			c0.4-1,1-2,1.8-2.8c0.8-0.8,1.7-1.4,2.7-1.8C379,533.7,380.1,533.5,381.2,533.5L381.2,533.5z"/>
		<g id="Group_14713" transform="translate(135 504)">
			<g id="Group_1068" transform="translate(0)">
				<g id="Group_1066">
					<path id="Path_1266-2" class="st0" d="M102.5,53.2c-8.2,0.1-15-6.6-15.1-14.8c0,0,0,0,0,0v-0.1c-0.1-8.1,6.4-14.8,14.5-14.9
						c0,0,0,0,0,0c0.1,0,0.2,0,0.4,0c6.5-0.1,12.2,4,14.2,10.2h-7.6c-1.2-2.5-3.8-4.1-6.6-3.9c-4.7,0-8,3.6-8,8.6s3.5,8.7,8.2,8.7
						c2.8,0,4.7-1.1,6.4-3.7h7.6C114.1,49.5,109,53.2,102.5,53.2z"/>
					<path id="Path_1267-2" class="st0" d="M145,53v-4.2c-2.2,2.9-5.7,4.5-9.4,4.3c-8.2,0-14.2-6.2-14.2-14.6
						c0-8.6,6-14.9,14.3-14.9c4.1,0,6.9,1.3,9.2,4.4v-4.7h6.2v29.6L145,53z M136.5,29.9c-4.8,0-8.2,3.7-8.2,8.8
						c-0.2,4.4,3.2,8.1,7.5,8.3c0.3,0,0.5,0,0.8,0c5.1,0,8.2-3.7,8.2-8.3C144.8,33.5,141.3,29.9,136.5,29.9L136.5,29.9z"/>
					<path id="Path_1268-2" class="st0" d="M171.6,42.4l-6.7,5.3h13v5.4l-21.5,0v-5l11.9-9.7c2.7-2.2,3.8-3.9,3.8-5.7
						c0-2.5-2.1-4.5-4.6-4.5c-0.1,0-0.1,0-0.2,0c-3.1,0-5.1,2.2-5.1,5.6h-5.8c0-6.6,4.6-10.4,10.9-10.4c6.1,0,10.7,4,10.7,9.3
						C178,36.2,176.6,38.5,171.6,42.4z"/>
					<circle id="Ellipse_164" class="st0" cx="186.6" cy="49.8" r="3.2"/>
				</g>
			</g>
		</g>
		<path id="Path_1708" class="st0" d="M360.4,545.3h-22.2c0.8,3.5,3.8,5.6,7.9,5.6c2.5,0.2,4.8-0.9,6.3-2.8h7.5
			c-1.9,5.9-7.9,9.2-13.7,9.2c-8.7,0-15.5-6.5-15.5-14.9c-0.1-8.3,6.6-15.1,14.9-15.1c0.1,0,0.2,0,0.2,0c8.5,0,14.8,6.5,14.8,15.4
			C360.7,543.6,360.6,544.4,360.4,545.3z M346,533.6c-4.1,0-6.9,2-8,5.7h15.9C353,535.6,350.2,533.6,346,533.6L346,533.6z"/>
		<path id="Path_27287" class="st0" d="M416.8,557.3c8.3-0.1,14.9-7,14.8-15.3c-0.1-8.3-7-14.9-15.3-14.8c-8.3,0.1-14.9,7-14.8,15.2
			C401.5,550.5,408.5,557.3,416.8,557.3z M416.8,533.6c4.8-0.2,8.9,3.5,9.1,8.3c0.2,4.8-3.5,8.9-8.3,9.1c-4.8,0.2-8.9-3.5-9.1-8.3
			c0-0.1,0-0.2,0-0.4C408.4,537.6,412.1,533.7,416.8,533.6C416.8,533.6,416.8,533.6,416.8,533.6z"/>
		<path id="Path_1266-2-2" class="st0" d="M452.4,557c-8.2,0.1-15-6.6-15.1-14.8c0,0,0,0,0,0v-0.1c-0.1-8.1,6.4-14.8,14.5-14.9
			c0,0,0,0,0,0c0.1,0,0.2,0,0.4,0c6.5-0.1,12.2,4,14.2,10.2h-7.6c-1.2-2.5-3.8-4.1-6.6-3.9c-4.7,0-8,3.6-8,8.6c0,5,3.5,8.7,8.2,8.7
			c2.8,0,4.7-1.1,6.4-3.7h7.6C464,553.4,458.9,557,452.4,557z"/>
	</g>
	<g>
		<path class="st0" d="M132.4,507.4h-15.1c-0.6,0-1,0.5-1,1c0,0.6,0.5,1,1,1h15.1c0.5,0,1-0.5,1-1
			C133.4,507.9,133,507.4,132.4,507.4z"/>
		<path class="st0" d="M117.2,501.9c-0.6,0-1,0.5-1,1.1c0,0.6,0.5,1,1.1,1h15.1c0.5,0,1-0.5,1-1c0-0.6-0.4-1-1-1.1H117.2
			C117.3,501.9,117.3,501.9,117.2,501.9z"/>
		<path class="st0" d="M122.3,512.9h-5c0,0,0,0-0.1,0c-0.6,0-1,0.5-1,1.1c0,0.6,0.5,1,1.1,1h5c0.5,0,1-0.5,1-1
			C123.3,513.4,122.9,512.9,122.3,512.9z"/>
		<path class="st0" d="M149.2,473.2h-48.6l0,0c-5.3,0-9.6,4.3-9.6,9.6l0,40.5c0,2.6,1.3,5,3.6,6.3l26.4,16.2c2.3,1.4,5.1,1.4,7.4,0
			l26.6-16.4c2.1-1.3,3.4-3.6,3.4-6.1v-40.9c0,0,0,0,0,0C158.4,477.4,154.3,473.2,149.2,473.2z M129.8,488.6
			c0.3,0.2,0.6,0.4,0.8,0.6l6.6,6.3c0.3,0.3,0.5,0.6,0.7,0.9h-7.8c-0.2,0-0.3-0.2-0.3-0.3V488.6z M138.4,519.5
			c0,2.1-1.7,3.8-3.8,3.8h-19.2c-2.1,0-3.8-1.7-3.8-3.8v-27.6c0-2.1,1.7-3.8,3.8-3.8h12.3v7.9c0,1.3,1.1,2.4,2.4,2.4h8.3V519.5z"/>
	</g>
</g>
</svg>
