<svg xmlns="http://www.w3.org/2000/svg" width="331.344" height="73.673" viewBox="0 0 331.344 73.673">
  <g id="Group_14756" data-name="Group 14756" transform="translate(-91 -473.209)">
    <g id="Group_14743" data-name="Group 14743" transform="translate(-44 -30.791)">
      <path id="Path_27288" data-name="Path 27288" d="M236.454,612.345l.115-38.077h-6.9v11.825a12.079,12.079,0,0,0-8.967-3.475,13.775,13.775,0,0,0-5.633,1.169,14.468,14.468,0,0,0-7.673,7.905,15.916,15.916,0,0,0-.029,11.662,14.273,14.273,0,0,0,7.616,7.85,13.875,13.875,0,0,0,5.6,1.141,13.1,13.1,0,0,0,5.23-.993,13.507,13.507,0,0,0,4.426-3.255l-.115,4.248Zm-14.887-23.66a8.3,8.3,0,0,1,3.334.673,9.008,9.008,0,0,1,2.73,1.82,8.181,8.181,0,0,1,1.839,2.718,8.555,8.555,0,0,1,.661,3.361,9.427,9.427,0,0,1-.661,3.586,9.244,9.244,0,0,1-1.811,2.857,7.856,7.856,0,0,1-2.759,1.9,8.835,8.835,0,0,1-3.449.673,8.4,8.4,0,0,1-3.306-.643,7.834,7.834,0,0,1-2.644-1.82,8.107,8.107,0,0,1-1.724-2.8,10.225,10.225,0,0,1-.6-3.585,9.279,9.279,0,0,1,.632-3.445,8.527,8.527,0,0,1,1.753-2.773,8.1,8.1,0,0,1,2.673-1.849A8.3,8.3,0,0,1,221.567,588.686Z" transform="translate(159.679 -55.181)" fill="#005af4"/>
      <g id="Group_14713" data-name="Group 14713" transform="translate(135 504)">
        <g id="Group_1068" data-name="Group 1068" transform="translate(0)">
          <g id="Group_1066" data-name="Group 1066">
            <path id="Path_1653" data-name="Path 1653" d="M-2346.918,331.844h48.583a9.262,9.262,0,0,1,9.263,9.262h0V381.96a7.211,7.211,0,0,1-3.428,6.139l-26.571,16.368a7.071,7.071,0,0,1-7.412,0l-26.436-16.241a7.459,7.459,0,0,1-3.553-6.349l-.024-40.451a9.58,9.58,0,0,1,9.575-9.585Z" transform="translate(2356.496 -331.844)" fill="#005af4"/>
            <path id="Path_1266-2" data-name="Path 1266-2" d="M-2173.729,397.2a14.924,14.924,0,0,1-15.053-14.8v-.085a14.693,14.693,0,0,1,14.5-14.884c.118,0,.236,0,.355,0a14.542,14.542,0,0,1,14.192,10.161h-7.63a6.832,6.832,0,0,0-6.562-3.9c-4.68,0-8.039,3.592-8.039,8.57s3.51,8.672,8.19,8.672c2.8,0,4.731-1.128,6.41-3.746h7.63C-2162.079,393.558-2167.164,397.2-2173.729,397.2Z" transform="translate(2276.188 -344.012)" fill="#001777"/>
            <path id="Path_1267-2" data-name="Path 1267-2" d="M-2117.447,396.661v-4.177a11.344,11.344,0,0,1-9.361,4.323c-8.243,0-14.191-6.156-14.191-14.65,0-8.6,6-14.851,14.346-14.851,4.068,0,6.866,1.322,9.207,4.428v-4.693h6.2v29.625Zm-8.5-23.151c-4.833,0-8.243,3.662-8.243,8.8a7.916,7.916,0,0,0,8.342,8.291c5.138,0,8.189-3.662,8.189-8.342,0-5.14-3.456-8.751-8.288-8.751Z" transform="translate(2262.445 -343.615)" fill="#001777"/>
            <path id="Path_1268-2" data-name="Path 1268-2" d="M-2076.153,384.961l-6.726,5.3h12.958v5.358l-21.5.029V390.6l11.927-9.657c2.671-2.2,3.786-3.866,3.786-5.723a4.53,4.53,0,0,0-4.569-4.49c-.066,0-.131,0-.2,0-3.072,0-5.122,2.244-5.122,5.647h-5.834c0-6.573,4.583-10.365,10.909-10.365,6.1,0,10.731,4.021,10.731,9.28C-2069.785,378.812-2071.166,381.056-2076.153,384.961Z" transform="translate(2247.756 -342.565)" fill="#001777"/>
            <circle id="Ellipse_164" data-name="Ellipse 164" cx="3.18" cy="3.18" r="3.18" transform="translate(183.375 46.594)" fill="#001777"/>
          </g>
        </g>
      </g>
      <path id="Path_1708" data-name="Path 1708" d="M1239.817,280.361h-22.205c.827,3.468,3.83,5.642,7.919,5.642a7.286,7.286,0,0,0,6.315-2.847h7.5c-1.913,5.9-7.866,9.163-13.664,9.163-8.748,0-15.53-6.522-15.53-14.908a15,15,0,0,1,15.116-15.115c8.539,0,14.8,6.522,14.8,15.425A11.122,11.122,0,0,1,1239.817,280.361Zm-14.441-11.749c-4.09,0-6.886,2.019-7.972,5.693h15.89C1232.415,270.63,1229.619,268.611,1225.376,268.611Z" transform="translate(-879.404 264.955)" fill="#005af4"/>
      <path id="Path_27287" data-name="Path 27287" d="M1163.229,292.318a15.014,15.014,0,1,0-15.271-14.8C1147.959,285.589,1154.9,292.318,1163.229,292.318Zm0-23.707a8.7,8.7,0,1,1-8.334,8.7A8.511,8.511,0,0,1,1163.229,268.611Z" transform="translate(-746.427 264.955)" fill="#005af4"/>
      <path id="Path_1266-2-2" data-name="Path 1266-2" d="M-2173.729,397.2a14.924,14.924,0,0,1-15.053-14.8v-.085a14.693,14.693,0,0,1,14.5-14.884c.118,0,.236,0,.355,0a14.542,14.542,0,0,1,14.192,10.161h-7.63a6.832,6.832,0,0,0-6.562-3.9c-4.68,0-8.039,3.592-8.039,8.57s3.51,8.672,8.19,8.672c2.8,0,4.731-1.128,6.41-3.746h7.63C-2162.079,393.558-2167.164,397.2-2173.729,397.2Z" transform="translate(2626.084 159.813)" fill="#005af4"/>
    </g>
    <g id="Group_14732" data-name="Group 14732" transform="translate(111.684 488.174)">
      <path id="Path_27268" data-name="Path 27268" d="M79.445,10.285a2.4,2.4,0,0,1-2.4-2.4V0H64.771A3.776,3.776,0,0,0,61,3.771V31.336a3.776,3.776,0,0,0,3.771,3.771h19.2a3.776,3.776,0,0,0,3.771-3.771V10.285Zm-12.822,14.4h4.986a1.029,1.029,0,0,1,0,2.057H66.623a1.029,1.029,0,1,1,0-2.057Zm-1.029-4.457A1.029,1.029,0,0,1,66.623,19.2H81.708a1.029,1.029,0,0,1,0,2.057H66.623A1.029,1.029,0,0,1,65.594,20.228Zm16.114-6.514a1.029,1.029,0,0,1,0,2.057H66.623a1.029,1.029,0,1,1,0-2.057Z" transform="translate(-61)" fill="#fff"/>
      <path id="Path_27269" data-name="Path 27269" d="M325,13.68a.343.343,0,0,0,.343.343h7.838a3.762,3.762,0,0,0-.721-.942l-6.612-6.255A3.78,3.78,0,0,0,325,6.221V13.68Z" transform="translate(-306.898 -5.794)" fill="#fff"/>
    </g>
  </g>
</svg>
