<svg xmlns="http://www.w3.org/2000/svg" width="11.429" height="16" viewBox="0 0 11.429 16">
  <g id="reject-state-icon" transform="translate(-467 -1251)">
    <path id="Path_30000" data-name="Path 30000" d="M3096.257,3377.171l-4-4a.519.519,0,0,0-.4-.171h-5.714a1.146,1.146,0,0,0-1.143,1.143v13.714a1.146,1.146,0,0,0,1.143,1.143h9.143a1.146,1.146,0,0,0,1.143-1.143v-10.286A.519.519,0,0,0,3096.257,3377.171Zm-4.4-2.8,3.2,3.2h-3.2Zm3.428,13.486h-9.143v-13.714h4.571v3.428a1.146,1.146,0,0,0,1.143,1.143h3.428Z" transform="translate(-2618 -2122)" fill="#091e42"/>
    <path id="Path_30001" data-name="Path 30001" d="M5.714,2.286H3.429V0H2.286V2.286H0V3.429H2.286V5.714H3.429V3.429H5.714Z" transform="translate(472.714 1257.245) rotate(45)" fill="#091e42"/>
  </g>
</svg>
