<svg xmlns="http://www.w3.org/2000/svg" width="11.429" height="16" viewBox="0 0 11.429 16">
  <g id="voided-state-icon" transform="translate(-711 -1251)">
    <path id="Path_30005" data-name="Path 30005" d="M3549.857,3389.286h-4.67l1.478-1.478-.808-.808-2.857,2.857,2.857,2.857.808-.808-1.478-1.478h4.67V3395H3551v-4.571A1.144,1.144,0,0,0,3549.857,3389.286Z" transform="translate(-2829.286 -2128)" fill="#091e42"/>
    <path id="Path_30006" data-name="Path 30006" d="M3544.261,3377.167l-4-4a.57.57,0,0,0-.4-.167h-5.714a1.144,1.144,0,0,0-1.143,1.143v13.714a1.144,1.144,0,0,0,1.143,1.143h4.571v-1.143h-4.571v-13.714h4.571v3.428a1.144,1.144,0,0,0,1.143,1.143h3.428v1.143h1.143v-2.286A.57.57,0,0,0,3544.261,3377.167Zm-4.4-2.788,3.192,3.192h-3.192Z" transform="translate(-2822 -2122)" fill="#091e42"/>
  </g>
</svg>
