<svg xmlns="http://www.w3.org/2000/svg" width="11.429" height="16" viewBox="0 0 11.429 16">
  <g id="wait-state-icon" transform="translate(-717 -736)">
    <path id="Path_30026" data-name="Path 30026" d="M724,752.429h5.241l-1.478,1.478.808.808,2.857-2.857L728.571,749l-.808.808,1.478,1.478H724Z" transform="translate(-3 -5.571)" fill="#091e42"/>
    <path id="Path_30027" data-name="Path 30027" d="M728.429,742.857v-2.286a.57.57,0,0,0-.167-.4l-4-4a.57.57,0,0,0-.4-.167h-5.714A1.144,1.144,0,0,0,717,737.143v13.714A1.144,1.144,0,0,0,718.143,752h9.143a1.144,1.144,0,0,0,1.143-1.143v-1.143h-1.143v1.143h-9.143V737.143h4.571v3.429a1.144,1.144,0,0,0,1.143,1.143h3.429v1.143Zm-4.571-2.286v-3.192l3.192,3.192Z" fill="#091e42"/>
  </g>
</svg>
